<svg width="1512" height="109" viewBox="0 0 1512 109" fill="none" xmlns="http://www.w3.org/2000/svg">
<path fill-rule="evenodd" clip-rule="evenodd" d="M0 35.3979L32.256 41.3951C62.496 47.9375 127.008 59.9319 189.504 51.7539C252 43.5759 314.496 15.2255 379.008 4.86665C441.504 -5.49217 504 2.68584 566.496 10.8639C631.008 19.0419 693.504 27.2199 756 37.5787C818.496 47.9375 883.008 59.9319 945.504 57.7511C1008 56.1155 1070.5 39.7595 1135.01 25.0391C1197.5 10.8639 1260 -1.13056 1322.5 0.505039C1387.01 2.68584 1449.5 19.0419 1479.74 27.2199L1512 35.3979V109H1479.74C1449.5 109 1387.01 109 1322.5 109C1260 109 1197.5 109 1135.01 109C1070.5 109 1008 109 945.504 109C883.008 109 818.496 109 756 109C693.504 109 631.008 109 566.496 109C504 109 441.504 109 379.008 109C314.496 109 252 109 189.504 109C127.008 109 62.496 109 32.256 109H0L0 35.3979Z" fill="white"/>
</svg>
