<svg width="200" height="1024" viewBox="0 0 200 1024" fill="none" xmlns="http://www.w3.org/2000/svg">
<path fill-rule="evenodd" clip-rule="evenodd" d="M64.9503 1024L75.9543 1001.88C87.9587 981.137 109.967 936.892 94.9613 894.029C79.9558 851.167 27.9366 808.304 8.92962 764.059C-10.0774 721.196 4.92815 678.333 19.9337 635.471C34.9392 591.225 49.9447 548.363 68.9517 505.5C87.9587 462.637 109.967 418.392 105.965 375.529C102.964 332.667 72.9532 289.804 45.9433 245.559C19.9337 202.696 -2.07443 159.833 0.926676 116.971C4.92815 72.7253 34.9392 29.8626 49.9447 9.12264L64.9503 -13H200V9.12264C200 29.8626 200 72.7253 200 116.971C200 159.833 200 202.696 200 245.559C200 289.804 200 332.667 200 375.529C200 418.392 200 462.637 200 505.5C200 548.363 200 591.225 200 635.471C200 678.333 200 721.196 200 764.059C200 808.304 200 851.167 200 894.029C200 936.892 200 981.137 200 1001.88V1024H64.9503Z" fill="white"/>
</svg>
