<svg width="609" height="481" viewBox="0 0 609 481" fill="none" xmlns="http://www.w3.org/2000/svg">
<path fill-rule="evenodd" clip-rule="evenodd" d="M-165.671 53.0613L-102.212 35.937C-38.7534 18.8126 88.1643 -15.436 166.57 8.13022C244.975 31.6965 274.868 113.078 277.039 227.496C279.21 341.914 253.66 489.369 304.344 545.973C355.028 602.576 481.946 568.327 545.405 551.203L608.863 534.079L359.371 831.412L330.564 807.24C301.757 783.068 244.142 734.724 186.528 686.38C128.914 638.036 71.2998 589.692 13.6856 541.348C-43.9285 493.004 -101.543 444.66 -159.157 396.316C-216.771 347.972 -274.385 299.628 -303.192 275.456L-332 251.284L-165.671 53.0613Z" fill="#005236"/>
</svg>
